<?xml version="1.0" encoding="UTF-8" standalone="no"?>
<svg width="32px" height="32px" viewBox="0 0 32 32" version="1.1" xmlns="http://www.w3.org/2000/svg" xmlns:xlink="http://www.w3.org/1999/xlink">
    <!-- Generator: Sketch 40 (33762) - http://www.bohemiancoding.com/sketch -->
    <title>Brand</title>
    <desc>Created with Sketch.</desc>
    <defs>
        <path d="M16,0 C7.163444,0 0,7.16150109 0,16 C0,24.836556 7.16150109,32 16,32 C24.836556,32 32,24.8384989 32,16 C32,7.163444 24.8384989,0 16,0 Z" id="path-1"></path>
    </defs>
    <g id="Exposition" stroke="none" stroke-width="1" fill="none" fill-rule="evenodd">
        <g id="Desktop" transform="translate(-336.000000, -377.000000)">
            <g id="07-App_End" transform="translate(320.000000, 79.000000)">
                <g id="Messages" transform="translate(16.000000, 69.000000)">
                    <g id="message3" transform="translate(0.000000, 229.000000)">
                        <g id="Brand">
                            <g id="File">
                                <mask id="mask-2" fill="white">
                                    <use xlink:href="#path-1"></use>
                                </mask>
                                <use id="Base" fill="#0EC275" xlink:href="#path-1"></use>
                            </g>
                            <path d="M12.9459258,16.2158281 C12.9459258,14.4750824 14.3539633,13.0638039 16.0906012,13.0638039 L16.167537,13.0638039 C17.8836802,13.0638039 19.2316681,14.4420742 19.1975742,16.1620983 L24.5017663,16.2677229 L24.5047221,16.1186035 L19.20053,16.0129788 C19.1659583,17.7571055 17.7131068,19.2168978 16.1290691,19.2168978 C14.6640679,19.2168978 13.4764497,20.4072582 13.4764497,21.8756421 C13.4764497,23.344026 14.6640679,24.5343864 16.1290691,24.5343864 C20.6286884,24.5343864 24.4132821,20.7317124 24.5047221,16.1186035 L19.20053,16.0129788 L19.1975742,16.1620983 L24.5017663,16.2677229 C24.5948789,11.5702339 20.8549768,7.74631539 16.167537,7.74631539 L16.0906012,7.74631539 C11.4239694,7.74631539 7.640687,11.538306 7.640687,16.2158281 L7.63562879,21.8756421 C7.63562879,23.344026 8.82324695,24.5343864 10.2882482,24.5343864 C11.7532494,24.5343864 12.9408676,23.344026 12.9408676,21.8756421 L12.9459258,16.2158281 Z" id="Path-1" fill="#448A0F" opacity="0.472248134" transform="translate(16.070175, 16.140351) rotate(-90.000000) translate(-16.070175, -16.140351) "></path>
                            <path d="M12.8055749,15.9351263 C12.8055749,14.1943806 14.2136125,12.7831022 15.9502503,12.7831022 L16.0271862,12.7831022 C17.7433293,12.7831022 19.0913172,14.1613725 19.0572233,15.8813965 L24.3614154,15.9870212 L24.3643712,15.8379017 L19.0601791,15.7322771 C19.0256074,17.4764038 17.5727559,18.9361961 15.9887182,18.9361961 C14.523717,18.9361961 13.3360988,20.1265564 13.3360988,21.5949403 C13.3360988,23.0633242 14.523717,24.2536846 15.9887182,24.2536846 C20.4883375,24.2536846 24.2729312,20.4510107 24.3643712,15.8379017 L19.0601791,15.7322771 L19.0572233,15.8813965 L24.3614154,15.9870212 C24.454528,11.2895321 20.7146259,7.46561364 16.0271862,7.46561364 L15.9502503,7.46561364 C11.2836185,7.46561364 7.50033613,11.2576042 7.50033613,15.9351263 L7.49527791,21.5949403 C7.49527791,23.0633242 8.68289607,24.2536846 10.1478973,24.2536846 C11.6128986,24.2536846 12.8005167,23.0633242 12.8005167,21.5949403 L12.8055749,15.9351263 Z" id="Path-1" fill="#FFFFFF" transform="translate(15.929825, 15.859649) rotate(-90.000000) translate(-15.929825, -15.859649) "></path>
                            <circle id="Oval-2-Copy" fill="#0EC275" cx="21.5789474" cy="21.6842105" r="2.03508772"></circle>
                        </g>
                    </g>
                </g>
            </g>
        </g>
    </g>
</svg>