<?xml version="1.0" encoding="UTF-8" standalone="no"?>
<svg width="20px" height="20px" viewBox="0 0 20 20" version="1.1" xmlns="http://www.w3.org/2000/svg" xmlns:xlink="http://www.w3.org/1999/xlink">
    <!-- Generator: Sketch 40 (33762) - http://www.bohemiancoding.com/sketch -->
    <title>embarrassed-1</title>
    <desc>Created with Sketch.</desc>
    <defs></defs>
    <g id="emoji" stroke="none" stroke-width="1" fill="none" fill-rule="evenodd">
        <g id="embarrassed-1">
            <path d="M18.2488889,8.35878788 C18.2488889,8.13171717 18.2401347,7.90673401 18.2243771,7.68377104 C17.9090236,7.81030303 17.5653199,7.88074074 17.2052525,7.88074074 C15.6917845,7.88074074 14.4604714,6.64942761 14.4604714,5.1359596 C14.4604714,4.58592593 14.7558923,3.9173064 15.3591919,3.10242424 C13.9973737,2.42511785 12.4523906,2.06781145 10.8255892,2.12713805 C5.6223569,2.31670034 1.55818182,6.68861953 1.74781145,11.8917845 C1.77555556,12.6529966 1.89393939,13.3893603 2.09037037,14.0919865 C2.51481481,14.9007407 3.05986532,15.636633 3.70208754,16.2751515 C5.1762963,17.2306397 6.93373737,17.7862626 8.82141414,17.7862626 C14.0280135,17.7862626 18.2488889,13.5653872 18.2488889,8.35878788 L18.2488889,8.35878788 Z M12.2220202,8.83016835 C12.2220202,8.23515152 12.7044444,7.75272727 13.2994613,7.75272727 C13.8944781,7.75272727 14.3769024,8.23515152 14.3769024,8.83016835 C14.3769024,8.97016835 14.3493603,9.10350168 14.3007407,9.22626263 C15.3061953,9.43905724 16.0607407,10.3313131 16.0607407,11.400202 C16.0607407,12.6277441 15.0657912,13.6228283 13.8382492,13.6228283 C12.6106397,13.6228283 11.6156229,12.6277441 11.6156229,11.400202 C11.6156229,10.6567677 11.9810101,9.99905724 12.5415488,9.5956229 C12.3443771,9.4003367 12.2220202,9.12956229 12.2220202,8.83016835 L12.2220202,8.83016835 Z M6.09414141,13.6228283 C4.86653199,13.6228283 3.87151515,12.6277441 3.87151515,11.400202 C3.87151515,10.3313805 4.62599327,9.43912458 5.63151515,9.22626263 C5.58289562,9.10356902 5.55535354,8.97016835 5.55535354,8.83016835 C5.55535354,8.23515152 6.03777778,7.75272727 6.63279461,7.75272727 C7.22781145,7.75272727 7.71023569,8.23515152 7.71023569,8.83016835 C7.71023569,9.12956229 7.58794613,9.4003367 7.39070707,9.59555556 C7.95124579,9.99905724 8.316633,10.6567677 8.316633,11.400202 C8.316633,12.6276768 7.3216835,13.6228283 6.09414141,13.6228283 L6.09414141,13.6228283 Z M7.72148148,13.8806061 L12.1659259,13.8806061 L12.1659259,14.9580471 L7.72148148,14.9580471 L7.72148148,13.8806061 L7.72148148,13.8806061 Z" id="Shape" fill="#FFCE00"></path>
            <path d="M18.2488889,8.35878788 C18.2488889,13.5653872 14.0280135,17.7862626 8.82141414,17.7862626 C6.93373737,17.7862626 5.17622896,17.2306397 3.70208754,16.2751515 C5.31016835,17.8740741 7.52478114,18.8637037 9.96619529,18.8637037 C14.8674747,18.8637037 18.8549495,14.876229 18.8549495,9.97494949 C18.8549495,9.13313131 18.7373064,8.31824916 18.5175758,7.54592593 C18.423165,7.5976431 18.3251178,7.64323232 18.2243771,7.68377104 C18.2401347,7.90673401 18.2488889,8.13171717 18.2488889,8.35878788 L18.2488889,8.35878788 Z" id="Shape" fill="#FFB100"></path>
            <path d="M10.8255892,2.12707071 C12.4523906,2.06774411 13.9974411,2.42511785 15.3591919,3.1023569 C15.3883502,3.06296296 15.4183838,3.02316498 15.4489562,2.98309764 C13.9375758,1.79535354 12.0331313,1.08619529 9.96619529,1.08619529 C5.06491582,1.08619529 1.07744108,5.07367003 1.07744108,9.97494949 C1.07744108,11.459798 1.44390572,12.860404 2.09037037,14.0919865 C1.89393939,13.3893603 1.77555556,12.6529966 1.74781145,11.8917845 C1.55818182,6.68861953 5.6223569,2.31670034 10.8255892,2.12707071 L10.8255892,2.12707071 Z" id="Shape" fill="#FFE454"></path>
            <path d="M7.39070707,9.59555556 C7.19602694,9.78835017 6.92841751,9.90760943 6.63279461,9.90760943 C6.17777778,9.90760943 5.78949495,9.62511785 5.63151515,9.22626263 C4.62599327,9.43912458 3.87151515,10.3313805 3.87151515,11.400202 C3.87151515,12.6277441 4.86646465,13.6228283 6.09414141,13.6228283 C7.3216835,13.6228283 8.316633,12.6277441 8.316633,11.400202 C8.316633,10.6567677 7.95124579,9.99905724 7.39070707,9.59555556 L7.39070707,9.59555556 Z" id="Shape" fill="#FF9E00"></path>
            <path d="M11.6156229,11.400202 C11.6156229,12.6277441 12.6105724,13.6228283 13.8382492,13.6228283 C15.0657912,13.6228283 16.0607407,12.6277441 16.0607407,11.400202 C16.0607407,10.3313131 15.3061953,9.43905724 14.3007407,9.22626263 C14.1427609,9.62511785 13.7544781,9.90760943 13.2994613,9.90760943 C13.0038384,9.90760943 12.736229,9.78835017 12.5415488,9.5956229 C11.9810101,9.99905724 11.6156229,10.6567677 11.6156229,11.400202 L11.6156229,11.400202 Z" id="Shape" fill="#FF9E00"></path>
            <path d="M6.63279461,9.90760943 C6.92841751,9.90760943 7.19602694,9.78835017 7.39070707,9.59555556 C7.58794613,9.4003367 7.71023569,9.12956229 7.71023569,8.83016835 C7.71023569,8.23515152 7.22781145,7.75272727 6.63279461,7.75272727 C6.03777778,7.75272727 5.55535354,8.23515152 5.55535354,8.83016835 C5.55535354,8.97016835 5.58289562,9.10350168 5.63151515,9.22626263 C5.78949495,9.62511785 6.17777778,9.90760943 6.63279461,9.90760943 L6.63279461,9.90760943 Z" id="Shape" fill="#000000"></path>
            <path d="M14.3007407,9.22626263 C14.3493603,9.10356902 14.3769024,8.97016835 14.3769024,8.83016835 C14.3769024,8.23515152 13.8944781,7.75272727 13.2994613,7.75272727 C12.7044444,7.75272727 12.2220202,8.23515152 12.2220202,8.83016835 C12.2220202,9.12956229 12.3443098,9.4003367 12.5415488,9.5956229 C12.736229,9.78835017 13.0038384,9.90760943 13.2994613,9.90760943 C13.7544781,9.90760943 14.1427609,9.62511785 14.3007407,9.22626263 L14.3007407,9.22626263 Z" id="Shape" fill="#000000"></path>
            <rect id="Rectangle-path" fill="#000000" x="7.72148148" y="13.8806061" width="4.44444444" height="1.07744108"></rect>
            <path d="M15.5379125,5.1359596 C15.5379125,6.0552862 16.2858586,6.80329966 17.2052525,6.80329966 C18.1245118,6.80329966 18.8724579,6.05535354 18.8724579,5.1359596 C18.8724579,4.55057239 17.9905724,3.40626263 17.2054545,2.58734007 C16.4201347,3.40707071 15.5379125,4.55191919 15.5379125,5.1359596 L15.5379125,5.1359596 Z" id="Shape" fill="#28E0FF"></path>
            <path d="M19.949899,5.1359596 C19.949899,4.49441077 19.5493603,3.69225589 18.7253872,2.6837037 C18.1587205,1.99010101 17.5993266,1.45811448 17.5758923,1.43582492 L17.2052525,1.08451178 L16.8346801,1.43575758 C16.8175758,1.45191919 16.5183165,1.73683502 16.1392593,2.1562963 C14.4405387,0.812255892 12.2954882,0.00875420875 9.96619529,0.00875420875 C4.47084175,0.00875420875 0,4.47952862 0,9.97494949 C0,15.470303 4.47084175,19.9411448 9.96619529,19.9411448 C15.4615488,19.9411448 19.9323906,15.470303 19.9323906,9.97494949 C19.9323906,8.85616162 19.7470034,7.77973064 19.4054545,6.77494949 C19.7472727,6.3173064 19.949899,5.74983165 19.949899,5.1359596 L19.949899,5.1359596 Z M18.8549495,9.97494949 C18.8549495,14.876229 14.8674747,18.8637037 9.96619529,18.8637037 C7.5247138,18.8637037 5.31010101,17.8740741 3.70208754,16.2751515 C3.05993266,15.636633 2.51481481,14.9007407 2.09037037,14.0919865 C1.44390572,12.860404 1.07744108,11.459798 1.07744108,9.97494949 C1.07744108,5.07367003 5.06491582,1.08619529 9.96619529,1.08619529 C12.0331313,1.08619529 13.9375758,1.79535354 15.4489562,2.98309764 C15.4183838,3.02323232 15.3883502,3.0630303 15.3591919,3.1023569 C14.7558923,3.9173064 14.4604714,4.58585859 14.4604714,5.13589226 C14.4604714,6.64936027 15.6917845,7.8806734 17.2052525,7.8806734 C17.5653199,7.8806734 17.9090236,7.81023569 18.2243771,7.6837037 C18.3251178,7.64316498 18.423165,7.59757576 18.5175758,7.54585859 C18.7373064,8.31824916 18.8549495,9.13313131 18.8549495,9.97494949 L18.8549495,9.97494949 Z M17.2052525,6.80323232 C16.2859259,6.80323232 15.5379125,6.0552862 15.5379125,5.13589226 C15.5379125,4.55185185 16.4201347,3.40700337 17.2054545,2.58727273 C17.9905724,3.40619529 18.8724579,4.55043771 18.8724579,5.13589226 C18.8724579,6.0552862 18.1245118,6.80323232 17.2052525,6.80323232 L17.2052525,6.80323232 Z" id="Shape" fill="#000000"></path>
        </g>
    </g>
</svg>