<?xml version="1.0" encoding="UTF-8" standalone="no"?>
<svg width="20px" height="20px" viewBox="0 0 20 20" version="1.1" xmlns="http://www.w3.org/2000/svg" xmlns:xlink="http://www.w3.org/1999/xlink">
    <!-- Generator: Sketch 40 (33762) - http://www.bohemiancoding.com/sketch -->
    <title>happy-1</title>
    <desc>Created with Sketch.</desc>
    <defs></defs>
    <g id="emoji" stroke="none" stroke-width="1" fill="none" fill-rule="evenodd">
        <g id="happy-1">
            <path d="M18.3105405,8.37824324 C18.3105405,7.61243243 18.2184459,6.86824324 18.0465541,6.15527027 C17.5554054,5.13148649 16.8742568,4.21554054 16.0493919,3.45283784 C14.5364865,2.54905405 12.7543919,2.05648649 10.8621622,2.12547297 C5.64135135,2.31574324 1.56344595,6.70243243 1.75371622,11.9231757 C1.78155405,12.6869595 1.90033784,13.4258108 2.09743243,14.1308108 C2.52331081,14.9422973 3.0702027,15.6806757 3.71459459,16.3213514 C5.19378378,17.2800676 6.95716216,17.8375676 8.85121622,17.8375676 C14.0754054,17.8375676 18.3105405,13.6024324 18.3105405,8.37824324 L18.3105405,8.37824324 Z M13.3443919,6.21608108 C13.9414189,6.21608108 14.425473,6.70013514 14.425473,7.29716216 C14.425473,7.89418919 13.9414189,8.37824324 13.3443919,8.37824324 C12.7473649,8.37824324 12.2633108,7.89418919 12.2633108,7.29716216 C12.2633108,6.70013514 12.7473649,6.21608108 13.3443919,6.21608108 L13.3443919,6.21608108 Z M6.6552027,6.21608108 C7.25222973,6.21608108 7.73628378,6.70013514 7.73628378,7.29716216 C7.73628378,7.89418919 7.25222973,8.37824324 6.6552027,8.37824324 C6.05817568,8.37824324 5.57412162,7.89418919 5.57412162,7.29716216 C5.57412162,6.70013514 6.05817568,6.21608108 6.6552027,6.21608108 L6.6552027,6.21608108 Z M3.91891892,9.9997973 L16.0806757,9.9997973 C16.0806757,13.3581757 13.3581757,16.0807432 9.99986486,16.0807432 C6.64141892,16.0807432 3.91891892,13.3581757 3.91891892,9.9997973 L3.91891892,9.9997973 Z" id="Shape" fill="#FFCE00"></path>
            <path d="M18.0465541,6.15527027 C18.2184459,6.86831081 18.3105405,7.61243243 18.3105405,8.37824324 C18.3105405,13.6024324 14.0754054,17.8375676 8.85121622,17.8375676 C6.95716216,17.8375676 5.19371622,17.2800676 3.71459459,16.3213514 C5.32810811,17.9256757 7.5502027,18.9186486 9.99986486,18.9186486 C14.9177027,18.9186486 18.9186486,14.9177027 18.9186486,9.99986486 C18.9186486,8.62405405 18.6052703,7.32006757 18.0465541,6.15527027 L18.0465541,6.15527027 Z" id="Shape" fill="#FFB100"></path>
            <path d="M10.8621622,2.12547297 C12.7544595,2.05648649 14.5365541,2.54905405 16.0493919,3.45283784 C14.4584459,1.98162162 12.3325,1.08108108 9.99986486,1.08108108 C5.08202703,1.08108108 1.08108108,5.08202703 1.08108108,9.99986486 C1.08108108,11.4896622 1.44878378,12.8950676 2.09743243,14.1308108 C1.90033784,13.4258108 1.78155405,12.6869595 1.75371622,11.9231757 C1.56344595,6.70243243 5.64135135,2.31574324 10.8621622,2.12547297 L10.8621622,2.12547297 Z" id="Shape" fill="#FFE454"></path>
            <path d="M9.99986486,0 C4.48594595,0 0,4.48594595 0,9.99986486 C0,15.5137838 4.48594595,19.9997297 9.99986486,19.9997297 C15.5137838,19.9997297 19.9997297,15.5137838 19.9997297,9.99986486 C19.9997297,4.48594595 15.5138514,0 9.99986486,0 L9.99986486,0 Z M9.99986486,18.9186486 C7.55013514,18.9186486 5.32804054,17.9256757 3.71459459,16.3213514 C3.07027027,15.6806757 2.52331081,14.9422973 2.09743243,14.1308108 C1.44878378,12.8950676 1.08108108,11.4896622 1.08108108,9.99986486 C1.08108108,5.08202703 5.08202703,1.08108108 9.99986486,1.08108108 C12.3325,1.08108108 14.4584459,1.98162162 16.0493919,3.45283784 C16.8742568,4.21554054 17.5554054,5.13148649 18.0465541,6.15527027 C18.6053378,7.32006757 18.9186486,8.62405405 18.9186486,9.99986486 C18.9186486,14.9177027 14.9177027,18.9186486 9.99986486,18.9186486 L9.99986486,18.9186486 Z" id="Shape" fill="#000000"></path>
            <path d="M9.99560811,14.9996622 C12.3814865,14.9996622 14.3779054,13.32 14.8733108,11.0808784 L14.8646622,11.0808784 L5.1177027,11.0808784 C5.61304054,13.32 7.60966216,14.9996622 9.99560811,14.9996622 L9.99560811,14.9996622 Z" id="Shape" fill="#FFFFFF"></path>
            <path d="M16.0806757,9.9997973 L3.91891892,9.9997973 C3.91891892,13.3581757 6.64141892,16.0807432 9.99986486,16.0807432 C13.3581757,16.0807432 16.0806757,13.3581757 16.0806757,9.9997973 L16.0806757,9.9997973 Z M14.8646622,11.0808784 L14.8733108,11.0808784 C14.3779054,13.32 12.3814189,14.9996622 9.99560811,14.9996622 C7.60966216,14.9996622 5.61310811,13.32 5.11777027,11.0808784 L14.8646622,11.0808784 L14.8646622,11.0808784 Z" id="Shape" fill="#000000"></path>
            <circle id="Oval" fill="#000000" cx="6.6552027" cy="7.29716216" r="1.08108108"></circle>
            <ellipse id="Oval" fill="#000000" cx="13.3443919" cy="7.29716216" rx="1.08108108" ry="1.08108108"></ellipse>
        </g>
    </g>
</svg>