<?xml version="1.0" encoding="UTF-8" standalone="no"?>
<svg width="20px" height="20px" viewBox="0 0 20 20" version="1.1" xmlns="http://www.w3.org/2000/svg" xmlns:xlink="http://www.w3.org/1999/xlink">
    <!-- Generator: Sketch 40 (33762) - http://www.bohemiancoding.com/sketch -->
    <title>happiness</title>
    <desc>Created with Sketch.</desc>
    <defs></defs>
    <g id="emoji" stroke="none" stroke-width="1" fill="none" fill-rule="evenodd">
        <g id="happiness">
            <path d="M18.3105405,8.37824324 C18.3105405,7.61243243 18.2184459,6.86824324 18.0465541,6.15527027 C17.5554054,5.13148649 16.8742568,4.21554054 16.0493919,3.45283784 C14.5364865,2.54905405 12.7543919,2.05648649 10.8620946,2.12547297 C5.64135135,2.31581081 1.56344595,6.70243243 1.75371622,11.9231757 C1.78162162,12.6869595 1.90033784,13.4258108 2.09743243,14.1308108 C2.52331081,14.9422973 3.0702027,15.6806757 3.71459459,16.3213514 C5.19378378,17.2800676 6.95716216,17.8375676 8.85128378,17.8375676 C14.0754054,17.8375676 18.3105405,13.6024324 18.3105405,8.37824324 L18.3105405,8.37824324 Z M13.4178378,6.64864865 C14.5950676,6.64864865 15.5527703,7.56736486 15.5527703,8.78358108 L14.4716892,8.78358108 C14.4716892,8.17547297 13.9989189,7.72972973 13.4178378,7.72972973 C12.8367568,7.72972973 12.3639865,8.17547297 12.3639865,8.78358108 L11.2829054,8.78358108 C11.2829054,7.56736486 12.2406081,6.64864865 13.4178378,6.64864865 L13.4178378,6.64864865 Z M6.58175676,6.64864865 C7.75898649,6.64864865 8.71668919,7.56736486 8.71668919,8.78358108 L7.63560811,8.78358108 C7.63560811,8.17547297 7.16283784,7.72972973 6.58175676,7.72972973 C6.00067568,7.72972973 5.52790541,8.17547297 5.52790541,8.78358108 L4.44682432,8.78358108 C4.44682432,7.56736486 5.40452703,6.64864865 6.58175676,6.64864865 L6.58175676,6.64864865 Z M4.77547297,12.6947297 L5.68344595,12.107973 C6.50939189,13.3860135 7.90040541,14.2525676 9.40452703,14.4260811 C11.3342568,14.6488514 13.2625,13.7387162 14.3162162,12.107973 L15.2242568,12.6947297 C14.0766892,14.4706081 12.0722973,15.5402027 9.98074324,15.5402027 C9.74797297,15.5402027 9.51452703,15.527027 9.28060811,15.5 C7.45898649,15.2899324 5.7747973,14.2412838 4.77547297,12.6947297 L4.77547297,12.6947297 Z" id="Shape" fill="#FFCE00"></path>
            <path d="M18.0465541,6.15527027 C18.2184459,6.86831081 18.3105405,7.61243243 18.3105405,8.37824324 C18.3105405,13.6024324 14.0754054,17.8375676 8.85121622,17.8375676 C6.95716216,17.8375676 5.19371622,17.2800676 3.71452703,16.3213514 C5.32804054,17.9256757 7.55006757,18.9186486 9.99986486,18.9186486 C14.9177027,18.9186486 18.9186486,14.9177027 18.9186486,9.99986486 C18.9186486,8.62405405 18.6052703,7.32006757 18.0465541,6.15527027 L18.0465541,6.15527027 Z" id="Shape" fill="#FFB100"></path>
            <path d="M10.8621622,2.12547297 C12.7544595,2.05648649 14.5365541,2.54898649 16.0494595,3.45283784 C14.4584459,1.98162162 12.3325,1.08108108 9.99986486,1.08108108 C5.08202703,1.08108108 1.08108108,5.08202703 1.08108108,9.99986486 C1.08108108,11.4896622 1.44878378,12.8950676 2.09743243,14.1308108 C1.90033784,13.4258108 1.78162162,12.6869595 1.75371622,11.9231757 C1.56344595,6.70243243 5.64135135,2.31581081 10.8621622,2.12547297 L10.8621622,2.12547297 Z" id="Shape" fill="#FFE454"></path>
            <path d="M9.99986486,0 C4.48594595,0 0,4.48594595 0,9.99986486 C0,15.5137838 4.48594595,19.9997297 9.99986486,19.9997297 C15.5137838,19.9997297 19.9997297,15.5137838 19.9997297,9.99986486 C19.9997297,4.48594595 15.5138514,0 9.99986486,0 L9.99986486,0 Z M9.99986486,18.9186486 C7.55006757,18.9186486 5.32804054,17.9256757 3.71452703,16.3213514 C3.0702027,15.6806757 2.52324324,14.9422973 2.09736486,14.1308108 C1.44878378,12.8950676 1.08108108,11.4896622 1.08108108,9.99986486 C1.08108108,5.08202703 5.08202703,1.08108108 9.99986486,1.08108108 C12.3325,1.08108108 14.4584459,1.98162162 16.0493919,3.45283784 C16.8742568,4.21554054 17.5554054,5.13148649 18.0465541,6.15527027 C18.6053378,7.32006757 18.9186486,8.62405405 18.9186486,9.99986486 C18.9186486,14.9177027 14.9177027,18.9186486 9.99986486,18.9186486 L9.99986486,18.9186486 Z" id="Shape" fill="#000000"></path>
            <path d="M6.58175676,7.72972973 C7.16283784,7.72972973 7.63560811,8.17547297 7.63560811,8.78358108 L8.71668919,8.78358108 C8.71668919,7.56736486 7.75898649,6.64864865 6.58175676,6.64864865 C5.40452703,6.64864865 4.44682432,7.56736486 4.44682432,8.78358108 L5.52790541,8.78358108 C5.52790541,8.17547297 6.00074324,7.72972973 6.58175676,7.72972973 L6.58175676,7.72972973 Z" id="Shape" fill="#000000"></path>
            <path d="M13.4178378,7.72972973 C13.9989189,7.72972973 14.4716892,8.17547297 14.4716892,8.78358108 L15.5527703,8.78358108 C15.5527703,7.56736486 14.5950676,6.64864865 13.4178378,6.64864865 C12.2406081,6.64864865 11.2829054,7.56736486 11.2829054,8.78358108 L12.3639865,8.78358108 C12.3639865,8.17547297 12.8367568,7.72972973 13.4178378,7.72972973 L13.4178378,7.72972973 Z" id="Shape" fill="#000000"></path>
            <path d="M9.98074324,15.5402027 C12.0722297,15.5402027 14.0766216,14.4706081 15.2242568,12.6947297 L14.3162162,12.107973 C13.2624324,13.7387162 11.3341892,14.6488514 9.40452703,14.4260811 C7.90033784,14.2526351 6.50932432,13.3860135 5.68344595,12.107973 L4.77547297,12.6947297 C5.7747973,14.2412838 7.45898649,15.2899324 9.28060811,15.5 C9.51445946,15.527027 9.74797297,15.5402027 9.98074324,15.5402027 L9.98074324,15.5402027 Z" id="Shape" fill="#000000"></path>
        </g>
    </g>
</svg>