<?xml version="1.0" encoding="UTF-8" standalone="no"?>
<svg width="42px" height="42px" viewBox="0 0 42 42" version="1.1" xmlns="http://www.w3.org/2000/svg" xmlns:xlink="http://www.w3.org/1999/xlink">
    <!-- Generator: Sketch 40 (33762) - http://www.bohemiancoding.com/sketch -->
    <title>download</title>
    <desc>Created with Sketch.</desc>
    <defs></defs>
    <g id="Exposition" stroke="none" stroke-width="1" fill="none" fill-rule="evenodd">
        <g id="Desktop" transform="translate(-387.000000, -433.000000)">
            <g id="07-App_End" transform="translate(320.000000, 79.000000)">
                <g id="Messages" transform="translate(16.000000, 69.000000)">
                    <g id="message4" transform="translate(37.000000, 276.000000)">
                        <g id="Group" transform="translate(14.000000, 9.000000)">
                            <g id="download">
                                <circle id="Oval-645" fill="#0EC275" cx="21" cy="21" r="21"></circle>
                                <path d="M19.5061443,21.8080736 L16.810956,21.8086916 C16.2293985,21.8093096 15.617558,21.790769 15.2652862,22.1430408 C14.9123964,22.4959306 14.9111603,23.0657457 15.2640502,23.4173995 L20.6043671,28.74412 C20.7897733,28.9295262 21.0419257,29.0111049 21.289134,28.9987445 C21.5363423,29.0111049 21.7878767,28.9326163 21.975755,28.744738 L27.3117458,23.4211076 C27.6640176,23.0688358 27.6652536,22.4990207 27.3129818,22.1467489 C26.960092,21.7950952 26.1467768,21.8049835 25.796977,21.8086916 L23.1017887,21.8093096 L23.1363979,14 L19.4282737,14 L19.5061443,21.8080736 Z" id="Path" fill="#FFFFFF"></path>
                            </g>
                        </g>
                    </g>
                </g>
            </g>
        </g>
    </g>
</svg>