<?xml version="1.0" encoding="UTF-8" standalone="no"?>
<svg width="50px" height="50px" viewBox="0 0 50 50" version="1.1" xmlns="http://www.w3.org/2000/svg" xmlns:xlink="http://www.w3.org/1999/xlink">
    <!-- Generator: Sketch 40 (33762) - http://www.bohemiancoding.com/sketch -->
    <title>Fill 141</title>
    <desc>Created with Sketch.</desc>
    <defs></defs>
    <g id="Interactive_1" stroke="none" stroke-width="1" fill="none" fill-rule="evenodd">
        <g id="06-App_Done-BIS" transform="translate(-441.000000, -221.000000)" fill="#FFFFFF">
            <g id="Messages" transform="translate(15.000000, 69.000000)">
                <g id="message2" transform="translate(393.000000, 130.000000)">
                    <path d="M61.125,29.8125 C61.125,28.9484375 61.825,28.25 62.6875,28.25 C63.55,28.25 64.25,28.9484375 64.25,29.8125 L64.25,36.0625 C64.25,36.9265625 63.55,37.625 62.6875,37.625 C61.825,37.625 61.125,36.9265625 61.125,36.0625 L61.125,29.8125 L61.125,29.8125 Z M47.0625,40.75 L68.9375,40.75 C69.8,40.75 70.5,40.0515625 70.5,39.1875 L70.5,22 L45.5,22 L45.5,39.1875 C45.5,40.0515625 46.2,40.75 47.0625,40.75 L47.0625,40.75 Z M76.75,22 L73.625,22 L73.625,40.75 C73.625,42.475 72.225,43.875 70.5,43.875 L45.5,43.875 C43.775,43.875 42.375,42.475 42.375,40.75 L42.375,22 L39.25,22 C35.7984375,22 33,24.7984375 33,28.25 L33,65.75 C33,69.2015625 35.7984375,72 39.25,72 L76.75,72 C80.2015625,72 83,69.2015625 83,65.75 L83,28.25 C83,24.7984375 80.2015625,22 76.75,22 L76.75,22 Z" id="Fill-141"></path>
                </g>
            </g>
        </g>
    </g>
</svg>